PathFileType	4	(X/Y/Z)	C:\Users\italobelli\Desktop\GitHub\PTbot_officialCBL\Personal_Results\FLX02_noisy1.trc
DataRate	CameraRate	NumFrames	NumMarkers	Units	OrigDataRate	OrigDataStartFrame	OrigNumFrames
106.125000	106.125000	34	9	m	106.125000	426	850
Frame#	Time		gu		centelbow		EpL		centpxt8		centijc7		ij		ts		aa		ai
			X1	Y1	Z1	X2	Y2	Z2	X3	Y3	Z3	X4	Y4	Z4	X5	Y5	Z5	X6	Y6	Z6	X7	Y7	Z7	X8	Y8	Z8	X9	Y9	Z9

426	4.0047	-0.098573	0.061844	0.10055	-0.018948	0.29385	0.19699	-0.044618	0.30568	0.1815	-0.046816	-0.15316	-0.008669	-0.046816	0.031938	-0.008669	0	0	0	-0.1372	-0.02204	0.054718	-0.13555	0.085244	0.10681	-0.11213	-0.065963	0.15636
427	4.0141	-0.098602	0.061847	0.10065	-0.018105	0.29353	0.19742	-0.043716	0.30548	0.18199	-0.046816	-0.15316	-0.008669	-0.046816	0.031938	-0.008669	0	0	0	-0.13736	-0.021952	0.054662	-0.13552	0.085262	0.10692	-0.11237	-0.06605	0.15627
428	4.0236	-0.098634	0.061849	0.10075	-0.017209	0.29316	0.19786	-0.042761	0.30523	0.18249	-0.046816	-0.15316	-0.008669	-0.046816	0.031938	-0.008669	0	0	0	-0.13753	-0.021863	0.054607	-0.13548	0.085276	0.10703	-0.11263	-0.066144	0.15617
429	4.033	-0.098669	0.061849	0.10086	-0.016261	0.29274	0.19831	-0.041755	0.30495	0.183	-0.046816	-0.15316	-0.008669	-0.046816	0.031938	-0.008669	0	0	0	-0.13772	-0.021772	0.054554	-0.13545	0.085286	0.10714	-0.11289	-0.066243	0.15608
430	4.0424	-0.098706	0.061849	0.10097	-0.015264	0.29228	0.19876	-0.0407	0.30462	0.18352	-0.046816	-0.15316	-0.008669	-0.046816	0.031938	-0.008669	0	0	0	-0.13792	-0.021681	0.054503	-0.13541	0.085293	0.10727	-0.11317	-0.066347	0.15598
431	4.0518	-0.098745	0.061848	0.10109	-0.014218	0.29177	0.19922	-0.039598	0.30425	0.18404	-0.046816	-0.15316	-0.008669	-0.046816	0.031938	-0.008669	0	0	0	-0.13813	-0.021588	0.054453	-0.13537	0.085296	0.10739	-0.11345	-0.066456	0.15587
432	4.0612	-0.098786	0.061846	0.10121	-0.013127	0.29122	0.19968	-0.03845	0.30384	0.18457	-0.046816	-0.15316	-0.008669	-0.046816	0.031938	-0.008669	0	0	0	-0.13834	-0.021494	0.054405	-0.13533	0.085295	0.10752	-0.11374	-0.066571	0.15576
433	4.0707	-0.09883	0.061843	0.10134	-0.011993	0.29063	0.20014	-0.037258	0.3034	0.18511	-0.046816	-0.15316	-0.008669	-0.046816	0.031938	-0.008669	0	0	0	-0.13857	-0.021399	0.054358	-0.13529	0.085291	0.10766	-0.11404	-0.06669	0.15565
434	4.0801	-0.098875	0.06184	0.10147	-0.010816	0.28999	0.20061	-0.036025	0.30291	0.18565	-0.046816	-0.15316	-0.008669	-0.046816	0.031938	-0.008669	0	0	0	-0.13881	-0.021303	0.054313	-0.13525	0.085284	0.1078	-0.11435	-0.066814	0.15553
435	4.0895	-0.098922	0.061835	0.10161	-0.0095993	0.28932	0.20108	-0.034752	0.30239	0.18621	-0.046816	-0.15316	-0.008669	-0.046816	0.031938	-0.008669	0	0	0	-0.13905	-0.021206	0.054268	-0.13521	0.085274	0.10794	-0.11466	-0.066942	0.15542
436	4.0989	-0.098971	0.061829	0.10175	-0.0083447	0.2886	0.20155	-0.03344	0.30184	0.18676	-0.046816	-0.15316	-0.008669	-0.046816	0.031938	-0.008669	0	0	0	-0.13931	-0.021108	0.054225	-0.13516	0.085261	0.10809	-0.11499	-0.067075	0.15529
437	4.1084	-0.099022	0.061823	0.10189	-0.007054	0.28785	0.20203	-0.032093	0.30125	0.18733	-0.046816	-0.15316	-0.008669	-0.046816	0.031938	-0.008669	0	0	0	-0.13957	-0.021008	0.054183	-0.13512	0.085244	0.10824	-0.11531	-0.067212	0.15516
438	4.1178	-0.099074	0.061816	0.10204	-0.0057293	0.28706	0.20252	-0.030711	0.30062	0.1879	-0.046816	-0.15316	-0.008669	-0.046816	0.031938	-0.008669	0	0	0	-0.13983	-0.020908	0.054142	-0.13507	0.085225	0.1084	-0.11565	-0.067354	0.15503
439	4.1272	-0.099127	0.061808	0.10219	-0.0043723	0.28623	0.203	-0.029297	0.29996	0.18847	-0.046816	-0.15316	-0.008669	-0.046816	0.031938	-0.008669	0	0	0	-0.14011	-0.020807	0.054101	-0.13502	0.085203	0.10856	-0.11599	-0.067499	0.1549
440	4.1366	-0.099182	0.061799	0.10234	-0.0029851	0.28537	0.20349	-0.027853	0.29927	0.18906	-0.046816	-0.15316	-0.008669	-0.046816	0.031938	-0.008669	0	0	0	-0.14039	-0.020704	0.054062	-0.13498	0.085178	0.10872	-0.11633	-0.067648	0.15476
441	4.1461	-0.099238	0.061789	0.1025	-0.0015696	0.28448	0.20398	-0.026379	0.29855	0.18964	-0.046816	-0.15316	-0.008669	-0.046816	0.031938	-0.008669	0	0	0	-0.14068	-0.0206	0.054023	-0.13493	0.08515	0.10889	-0.11668	-0.067801	0.15462
442	4.1555	-0.099295	0.061779	0.10266	-0.00012768	0.28355	0.20447	-0.024879	0.2978	0.19023	-0.046816	-0.15316	-0.008669	-0.046816	0.031938	-0.008669	0	0	0	-0.14097	-0.020496	0.053985	-0.13488	0.08512	0.10906	-0.11704	-0.067958	0.15447
443	4.1649	-0.099352	0.061768	0.10282	0.0013386	0.28259	0.20497	-0.023354	0.29702	0.19083	-0.046816	-0.15316	-0.008669	-0.046816	0.031938	-0.008669	0	0	0	-0.14127	-0.02039	0.053947	-0.13483	0.085088	0.10923	-0.1174	-0.068117	0.15432
444	4.1743	-0.099411	0.061756	0.10299	0.0028274	0.2816	0.20547	-0.021805	0.29622	0.19143	-0.046816	-0.15316	-0.008669	-0.046816	0.031938	-0.008669	0	0	0	-0.14157	-0.020284	0.05391	-0.13478	0.085053	0.10941	-0.11776	-0.068281	0.15417
445	4.1837	-0.09947	0.061744	0.10315	0.0043368	0.28058	0.20597	-0.020236	0.29538	0.19203	-0.046816	-0.15316	-0.008669	-0.046816	0.031938	-0.008669	0	0	0	-0.14187	-0.020176	0.053873	-0.13473	0.085015	0.10959	-0.11812	-0.068447	0.15401
446	4.1932	-0.09953	0.061731	0.10333	0.0058647	0.27953	0.20647	-0.018647	0.29452	0.19264	-0.046816	-0.15316	-0.008669	-0.046816	0.031938	-0.008669	0	0	0	-0.14218	-0.020067	0.053836	-0.13467	0.084975	0.10977	-0.11849	-0.068616	0.15386
447	4.2026	-0.09959	0.061717	0.1035	0.0074094	0.27846	0.20697	-0.01704	0.29363	0.19325	-0.046816	-0.15316	-0.008669	-0.046816	0.031938	-0.008669	0	0	0	-0.1425	-0.019958	0.0538	-0.13462	0.084934	0.10995	-0.11886	-0.068788	0.15369
448	4.212	-0.099651	0.061702	0.10367	0.0089688	0.27735	0.20748	-0.015418	0.29272	0.19387	-0.046816	-0.15316	-0.008669	-0.046816	0.031938	-0.008669	0	0	0	-0.14281	-0.019847	0.053764	-0.13456	0.08489	0.11014	-0.11923	-0.068962	0.15353
449	4.2214	-0.099712	0.061687	0.10385	0.010541	0.27622	0.20798	-0.013782	0.29179	0.19449	-0.046816	-0.15316	-0.008669	-0.046816	0.031938	-0.008669	0	0	0	-0.14313	-0.019736	0.053728	-0.13451	0.084844	0.11032	-0.11961	-0.06914	0.15336
450	4.2309	-0.099773	0.061672	0.10403	0.012124	0.27507	0.20849	-0.012134	0.29083	0.19511	-0.046816	-0.15316	-0.008669	-0.046816	0.031938	-0.008669	0	0	0	-0.14345	-0.019623	0.053692	-0.13445	0.084796	0.11051	-0.11998	-0.069319	0.15318
451	4.2403	-0.099834	0.061655	0.10421	0.013716	0.2739	0.209	-0.010476	0.28986	0.19573	-0.046816	-0.15316	-0.008669	-0.046816	0.031938	-0.008669	0	0	0	-0.14377	-0.01951	0.053655	-0.13439	0.084747	0.1107	-0.12036	-0.069501	0.15301
452	4.2497	-0.099895	0.061638	0.1044	0.015315	0.2727	0.20951	-0.0088093	0.28886	0.19636	-0.046816	-0.15316	-0.008669	-0.046816	0.031938	-0.008669	0	0	0	-0.14409	-0.019396	0.053619	-0.13434	0.084695	0.1109	-0.12073	-0.069684	0.15283
453	4.2591	-0.099956	0.061621	0.10458	0.016919	0.27148	0.21002	-0.0071366	0.28784	0.19698	-0.046816	-0.15316	-0.008669	-0.046816	0.031938	-0.008669	0	0	0	-0.14441	-0.01928	0.053582	-0.13428	0.084642	0.11109	-0.12111	-0.06987	0.15264
454	4.2686	-0.10002	0.061603	0.10477	0.018526	0.27024	0.21053	-0.0054594	0.28681	0.19761	-0.046816	-0.15316	-0.008669	-0.046816	0.031938	-0.008669	0	0	0	-0.14473	-0.019164	0.053545	-0.13422	0.084588	0.11128	-0.12148	-0.070058	0.15246
455	4.278	-0.10008	0.061585	0.10496	0.020134	0.26898	0.21104	-0.0037796	0.28575	0.19825	-0.046816	-0.15316	-0.008669	-0.046816	0.031938	-0.008669	0	0	0	-0.14505	-0.019047	0.053507	-0.13416	0.084532	0.11148	-0.12186	-0.070247	0.15227
456	4.2874	-0.10014	0.061566	0.10514	0.021742	0.2677	0.21156	-0.0020991	0.28468	0.19888	-0.046816	-0.15316	-0.008669	-0.046816	0.031938	-0.008669	0	0	0	-0.14537	-0.018929	0.053469	-0.13409	0.084474	0.11168	-0.12223	-0.070437	0.15207
457	4.2968	-0.10019	0.061546	0.10533	0.023346	0.26641	0.21207	-0.00041958	0.2836	0.19951	-0.046816	-0.15316	-0.008669	-0.046816	0.031938	-0.008669	0	0	0	-0.14569	-0.01881	0.05343	-0.13403	0.084416	0.11188	-0.1226	-0.070629	0.15188
458	4.3062	-0.10025	0.061526	0.10552	0.024947	0.2651	0.21258	0.0012569	0.28249	0.20014	-0.046816	-0.15316	-0.008669	-0.046816	0.031938	-0.008669	0	0	0	-0.146	-0.018691	0.053391	-0.13397	0.084356	0.11207	-0.12297	-0.070822	0.15168
459	4.3157	-0.10031	0.061506	0.10572	0.02654	0.26377	0.21309	0.0029286	0.28138	0.20078	-0.046816	-0.15316	-0.008669	-0.046816	0.031938	-0.008669	0	0	0	-0.14631	-0.01857	0.05335	-0.1339	0.084295	0.11227	-0.12334	-0.071016	0.15148
